<svg width="160" height="160" viewBox="0 0 160 160" fill="none" xmlns="http://www.w3.org/2000/svg">
  <circle cx="80" cy="80" r="80" fill="#1E1A45"/>
  <path d="M80 140C113.137 140 140 113.137 140 80C140 46.8629 113.137 20 80 20C46.8629 20 20 46.8629 20 80C20 113.137 46.8629 140 80 140Z" fill="#1E1A45"/>
  <path d="M80 140V110C80 110 100 110 110 100C120 90 120 80 120 80L130 90C130 90 130 110 120 120C110 130 80 140 80 140Z" fill="#1E1A45"/>
  <path d="M50 80C50 80 50 90 60 100C70 110 80 110 80 110V140C80 140 50 130 40 120C30 110 30 90 30 90L40 80H50Z" fill="#1E1A45"/>
  <path d="M80 100C91.0457 100 100 91.0457 100 80C100 68.9543 91.0457 60 80 60C68.9543 60 60 68.9543 60 80C60 91.0457 68.9543 100 80 100Z" fill="white"/>
  <path d="M65 75C66.6569 75 68 73.6569 68 72C68 70.3431 66.6569 69 65 69C63.3431 69 62 70.3431 62 72C62 73.6569 63.3431 75 65 75Z" fill="#1E1A45"/>
  <path d="M95 75C96.6569 75 98 73.6569 98 72C98 70.3431 96.6569 69 95 69C93.3431 69 92 70.3431 92 72C92 73.6569 93.3431 75 95 75Z" fill="#1E1A45"/>
  <path d="M70 85C70 85 73 90 80 90C87 90 90 85 90 85" stroke="#1E1A45" stroke-width="2" stroke-linecap="round"/>
  <path d="M50 50C50 50 60 30 80 30C100 30 110 50 110 50" stroke="#E57373" stroke-width="20" stroke-linecap="round"/>
  <path d="M110 50C110 50 110 70 100 90C90 110 80 110 80 110C80 110 70 110 60 90C50 70 50 50 50 50" fill="#E57373"/>
  <path d="M60 55C60 55 65 65 80 65C95 65 100 55 100 55" stroke="white" stroke-width="3" stroke-linecap="round"/>
</svg>

